# xmcd
#
# Track frame offsets: 
#        182
#        13150
#        27235
#        38487
#        48092
#        60405
#        71377
#        83320
#        95067
#        106322
#
# Disc length: 1587 seconds
#
# Revision: 1
# Processed by: cddbd v1.4PL0 Copyright (c) Steve Scherf et al.
# Submitted via: ExactAudioCopy v0.90b3
#
DISCID=6b06310a
DTITLE=Jim Reeves - Golden Memories
DYEAR=1900
DGENRE=Country
TTITLE0=Distant Drums 
TTITLE1=This Is It 
TTITLE2=Maureen  
TTITLE3=I'm Gonna Change Everything  
TTITLE4=A Letter To My Heart
TTITLE5=Look Who's Talking 
TTITLE6=Blue Canadian Rockies 
TTITLE7=In The Misty Moonlight 
TTITLE8=According To My Heart 
TTITLE9=Golden Memories And Silver Tears 
EXTD=
EXTT0=
EXTT1=
EXTT2=
EXTT3=
EXTT4=
EXTT5=
EXTT6=
EXTT7=
EXTT8=
EXTT9=
PLAYORDER=
